
<svg  xmlns="http://www.w3.org/2000/svg" viewBox="0 0 500 500">
<g>
	<path fill="#4BB7E2" d="M366.411,397.625V345.89h50.338V158.521h-3.603c-9.42,20.266-31.23,84.369-166.287,162.899
		C134.45,258.077,93.642,198.794,83.96,182.502V345.89h224.636 M297.547,338.199c-9.46,0-17.129-7.845-17.129-17.521
		c0-9.679,7.669-17.523,17.129-17.523c9.461,0,17.129,7.845,17.129,17.523C314.676,330.354,307.008,338.199,297.547,338.199z
		 M343.689,338.199c-9.461,0-17.129-7.845-17.129-17.521c0-9.679,7.668-17.523,17.129-17.523c9.46,0,17.13,7.845,17.13,17.523
		C360.819,330.354,353.149,338.199,343.689,338.199z M389.832,338.199c-9.46,0-17.128-7.845-17.128-17.521
		c0-9.679,7.668-17.523,17.128-17.523c9.461,0,17.129,7.845,17.129,17.523C406.961,330.354,399.293,338.199,389.832,338.199z"/>
	<g>
		<path fill="#135872" d="M415.352,109c0,0,11.186-98.287-97.181-108.774C277.65-1.653,246.859,25.19,246.859,25.19
			S223.438,0.349,178.344,0.349c-45.095,0-70.962,33.34-70.962,71.442c0,38.103,38.103,102.792,55.231,102.792
			c17.129,0,19.925-17.47,16.43-24.812c-3.495-7.341-36.355-35.651-36.355-85.988c0-18.178,44.485-63.037,103.473,10.488
			c26.566-31.46,39.85-39.15,68.515-39.15c28.664,0,66.767,19.577,66.767,58.729c0,27.792-9.438,88.907-134.349,174.203
			c-40.55-18.588-137.963-101.143-143.322-156.827l-66.771-0.229L36.419,393h254.486L414,499.582V393h50V109H415.352z M429,359h-50
			v65.019l-74.744-64.583l-231.699,0.007L72.337,147h6.03c20.507,73,168.492,159.72,168.492,159.72
			c115.356-59.774,159.236-159.534,159.236-159.534L429,147.335V359z"/>
		<path fill="#135872" d="M184.404,178.796c0,0,3.496-5.593,12.584-5.593c9.088,0,13.283,5.593,13.283,5.593
			s8.739,6.525,8.739,15.963c0,9.438-10.021,15.148-17.304,15.148c-7.283,0-21.266-9.787-21.266-19.809
			C180.441,181.826,184.404,178.796,184.404,178.796z"/>
	</g>
</g>
</svg>
