<svg  viewBox="0 0 54 50" fill="none" xmlns="http://www.w3.org/2000/svg">
<path d="M47.6425 25.8526C46.981 25.3458 46.2107 24.9999 45.3925 24.842C48.2856 21.5514 49.75 18.257 49.75 15.0001C49.75 9.62449 45.4206 5.25011 40.1012 5.25011C37.5396 5.23783 35.0769 6.23867 33.25 8.03449C31.4231 6.23867 28.9604 5.23783 26.3988 5.25011C21.0794 5.25011 16.75 9.62449 16.75 15.0001C16.75 16.9032 17.26 18.8064 18.2913 20.7564C17.4681 21.0961 16.7205 21.5957 16.0919 22.2264L12.0625 26.2501H7.75C6.75544 26.2501 5.80161 26.6452 5.09835 27.3485C4.39509 28.0517 4 29.0056 4 30.0001L4 37.5001C4 38.4947 4.39509 39.4485 5.09835 40.1518C5.80161 40.855 6.75544 41.2501 7.75 41.2501H26.5C26.684 41.2502 26.8672 41.2275 27.0456 41.1826L39.0456 38.1826C39.1604 38.1545 39.2727 38.1168 39.3812 38.0701L46.66 34.9689C46.7031 34.952 46.7444 34.9332 46.7856 34.9126C47.5997 34.5054 48.2967 33.8977 48.8111 33.1468C49.3255 32.3958 49.6404 31.5264 49.7261 30.6202C49.8118 29.714 49.6655 28.8009 49.301 27.9669C48.9365 27.1328 48.3658 26.4052 47.6425 25.8526ZM26.3988 9.75011C27.4125 9.73447 28.4079 10.0216 29.2576 10.5747C30.1073 11.1278 30.7727 11.9218 31.1687 12.8551C31.3383 13.2678 31.6266 13.6207 31.9972 13.8692C32.3678 14.1176 32.8039 14.2502 33.25 14.2502C33.6961 14.2502 34.1322 14.1176 34.5028 13.8692C34.8734 13.6207 35.1617 13.2678 35.3313 12.8551C35.7273 11.9218 36.3927 11.1278 37.2424 10.5747C38.0921 10.0216 39.0875 9.73447 40.1012 9.75011C42.8913 9.75011 45.25 12.1539 45.25 15.0001C45.25 18.3864 42.4375 22.2826 37.1162 26.2857L36.25 26.4864V26.2501C36.25 24.6588 35.6179 23.1327 34.4926 22.0075C33.3674 20.8823 31.8413 20.2501 30.25 20.2501H23.2581C21.8913 18.3301 21.25 16.6445 21.25 15.0001C21.25 12.1539 23.6087 9.75011 26.3988 9.75011ZM8.5 30.7501H10.75V36.7501H8.5V30.7501ZM44.815 30.8645L37.7819 33.8645L26.2225 36.7501H15.25V29.4376L19.2738 25.4139C19.4817 25.2036 19.7294 25.0367 20.0023 24.9228C20.2752 24.8088 20.568 24.7501 20.8638 24.7501H30.25C30.6478 24.7501 31.0294 24.9081 31.3107 25.1894C31.592 25.4708 31.75 25.8523 31.75 26.2501C31.75 26.6479 31.592 27.0295 31.3107 27.3108C31.0294 27.5921 30.6478 27.7501 30.25 27.7501H25C24.4033 27.7501 23.831 27.9872 23.409 28.4091C22.9871 28.8311 22.75 29.4034 22.75 30.0001C22.75 30.5968 22.9871 31.1691 23.409 31.5911C23.831 32.0131 24.4033 32.2501 25 32.2501H31C31.1697 32.2501 31.3389 32.2313 31.5044 32.1939L44.0669 29.3045L44.155 29.282C44.2831 29.2471 44.4174 29.2423 44.5477 29.2677C44.678 29.2932 44.8006 29.3483 44.9062 29.4288C45.0117 29.5093 45.0972 29.6131 45.1562 29.732C45.2152 29.8509 45.246 29.9818 45.2463 30.1145C45.2472 30.2665 45.2077 30.416 45.132 30.5478C45.0562 30.6795 44.9468 30.7888 44.815 30.8645Z" fill="currentColor"/>
</svg>
