<svg  viewBox="0 0 32 32"  xmlns="http://www.w3.org/2000/svg">
<path d="M16 26.6666C13.0222 26.6666 10.5 25.6333 8.43331 23.5666C6.36665 21.4999 5.33331 18.9777 5.33331 15.9999C5.33331 13.0221 6.36665 10.4999 8.43331 8.43325C10.5 6.36659 13.0222 5.33325 16 5.33325C17.5333 5.33325 19 5.6497 20.4 6.28259C21.8 6.91547 23 7.82125 24 8.99992V5.33325H26.6666V14.6666H17.3333V11.9999H22.9333C22.2222 10.7555 21.2498 9.7777 20.016 9.06659C18.7822 8.35547 17.4435 7.99992 16 7.99992C13.7778 7.99992 11.8889 8.7777 10.3333 10.3333C8.77776 11.8888 7.99998 13.7777 7.99998 15.9999C7.99998 18.2221 8.77776 20.111 10.3333 21.6666C11.8889 23.2221 13.7778 23.9999 16 23.9999C17.7111 23.9999 19.2555 23.511 20.6333 22.5333C22.0111 21.5555 22.9778 20.2666 23.5333 18.6666H26.3333C25.7111 21.0221 24.4444 22.9444 22.5333 24.4333C20.6222 25.9221 18.4444 26.6666 16 26.6666Z" fill="currentColor"/>
</svg>
