<svg  viewBox="0 0 48 48"  xmlns="http://www.w3.org/2000/svg">
<path d="M24 11L22.92 12.04C23.0599 12.1851 23.2277 12.3006 23.4132 12.3795C23.5988 12.4584 23.7984 12.499 24 12.499C24.2016 12.499 24.4012 12.4584 24.5868 12.3795C24.7723 12.3006 24.9401 12.1851 25.08 12.04L24 11ZM14.002 32.84C13.6943 32.587 13.2988 32.4665 12.9023 32.5052C12.5059 32.5438 12.141 32.7383 11.888 33.046C11.635 33.3536 11.5145 33.7492 11.5532 34.1456C11.5918 34.5421 11.7863 34.907 12.094 35.16L14.002 32.84ZM4.684 26.822C4.77855 26.9948 4.90622 27.1473 5.05971 27.2708C5.2132 27.3943 5.3895 27.4863 5.57856 27.5416C5.76762 27.597 5.96573 27.6145 6.16158 27.5933C6.35743 27.5721 6.54718 27.5125 6.72 27.418C6.89282 27.3234 7.04532 27.1958 7.1688 27.0423C7.29229 26.8888 7.38433 26.7125 7.43967 26.5234C7.49501 26.3343 7.51258 26.1362 7.49136 25.9404C7.47014 25.7445 7.41055 25.5548 7.316 25.382L4.684 26.822ZM5.5 18.274C5.5 13.974 7.93 10.366 11.248 8.84797C14.472 7.37397 18.804 7.76397 22.92 12.04L25.08 9.96197C20.2 4.88797 14.528 4.04997 10 6.11997C5.572 8.14597 2.5 12.85 2.5 18.274H5.5ZM16.994 39C18.02 39.808 19.12 40.668 20.234 41.32C21.348 41.97 22.62 42.5 24 42.5V39.5C23.38 39.5 22.652 39.26 21.748 38.73C20.842 38.202 19.904 37.474 18.852 36.644L16.994 39ZM31.006 39C33.858 36.75 37.506 34.174 40.366 30.952C43.28 27.672 45.5 23.606 45.5 18.274H42.5C42.5 22.668 40.7 26.056 38.124 28.96C35.494 31.92 32.18 34.254 29.148 36.644L31.006 39ZM45.5 18.274C45.5 12.85 42.43 8.14597 38 6.11997C33.472 4.04997 27.804 4.88797 22.92 9.95997L25.08 12.04C29.196 7.76597 33.528 7.37397 36.752 8.84797C40.07 10.366 42.5 13.972 42.5 18.274H45.5ZM29.148 36.644C28.096 37.474 27.158 38.202 26.252 38.73C25.348 39.258 24.62 39.5 24 39.5V42.5C25.38 42.5 26.652 41.97 27.766 41.32C28.882 40.668 29.98 39.808 31.006 39L29.148 36.644ZM18.852 36.644C17.26 35.39 15.642 34.19 14.002 32.84L12.094 35.16C13.754 36.526 15.51 37.83 16.994 39L18.854 36.644H18.852ZM7.316 25.384C6.11122 23.2088 5.48587 20.7605 5.5 18.274H2.5C2.5 21.55 3.34 24.366 4.684 26.822L7.316 25.382V25.384Z" fill="currentColor"/>
</svg>
