<svg  viewBox="0 0 48 48" fill="none" xmlns="http://www.w3.org/2000/svg">
<path d="M42 23.9999C41.9999 20.3556 40.8935 16.7971 38.8272 13.7951C36.7609 10.7931 33.832 8.48901 30.4279 7.18758C27.0238 5.88615 23.3049 5.64867 19.7629 6.50655C16.2209 7.36443 13.0228 9.27724 10.5914 11.992C8.16004 14.7068 6.61002 18.0957 6.14631 21.7105C5.68261 25.3252 6.32707 28.9956 7.99447 32.2362C9.66187 35.4768 12.2737 38.1349 15.4844 39.859C18.6952 41.5831 22.3537 42.292 25.976 41.8919M18 19.9999H18.02M30 19.9999H30.02" stroke="currentColor" stroke-width="3.5" stroke-linecap="round" stroke-linejoin="round"/>
<path d="M19 30C19.7322 30.7036 20.6052 31.2439 21.5616 31.5852C22.5179 31.9265 23.5358 32.061 24.548 31.98M37.988 43L43.024 37.84C43.649 37.1927 43.999 36.3284 44.0004 35.4286C44.0019 34.5288 43.6548 33.6634 43.032 33.014C42.729 32.6975 42.3653 32.4454 41.9625 32.2728C41.5597 32.1003 41.1263 32.0109 40.6881 32.0099C40.25 32.009 39.8161 32.0966 39.4126 32.2674C39.0091 32.4382 38.6443 32.6888 38.34 33.004L38.004 33.348L37.668 33.004C37.3649 32.6876 37.001 32.4356 36.5982 32.2633C36.1954 32.0909 35.7619 32.0017 35.3237 32.0009C34.8855 32.0002 34.4517 32.088 34.0483 32.2589C33.6449 32.4299 33.2802 32.6806 32.976 32.996C32.3516 33.6432 32.002 34.5071 32.0005 35.4064C31.999 36.3057 32.3457 37.1707 32.968 37.82L37.988 43Z" stroke="currentColor" stroke-width="3.5" stroke-linecap="round" stroke-linejoin="round"/>
</svg>
